<?xml version="1.0" encoding="UTF-8"?> <!-- Generator: Adobe Illustrator 24.3.0, SVG Export Plug-In . SVG Version: 6.00 Build 0) --> <svg xmlns="http://www.w3.org/2000/svg" xmlns:xlink="http://www.w3.org/1999/xlink" id="Layer_1" x="0px" y="0px" viewBox="0 0 451.89 99.61" style="enable-background:new 0 0 451.89 99.61;" xml:space="preserve"> <style type="text/css"> .st0{fill:#FFFFFF;} </style> <g> <polygon class="st0" points="53.8,37.36 15.72,19.59 15.17,79.55 28.14,79.43 28.07,55.37 "></polygon> <polygon class="st0" points="43.27,79.55 60.53,79.51 67.78,65.25 80.81,65.89 88.36,79.35 101.68,79.72 72.88,19.83 "></polygon> <polygon class="st0" points="141.75,35.8 107.64,19.59 109.22,79.17 123.39,79.56 121.19,51.4 "></polygon> <polygon class="st0" points="136.02,79.6 149.63,79.3 155.53,60.85 165.16,61.11 172.8,79.72 180.93,79.55 159.93,20.31 "></polygon> <polygon class="st0" points="237.21,20.31 218.27,19.59 202.91,50.01 243.19,49.55 224.26,79.55 242.86,79.55 262.73,40.16 224.19,39.1 "></polygon> <polygon class="st0" points="274.76,20.31 273.09,79.72 283.64,79.46 290.14,67.66 302.3,79.72 312.41,79.55 287.02,50.37 313.42,32.38 "></polygon> <polygon class="st0" points="328.52,20.02 320.55,79.55 331.76,79.55 333.18,63.35 341.89,62.65 349.23,79.55 357.81,79.55 335.61,20.02 "></polygon> <polygon class="st0" points="364.79,20.02 364.79,79.15 374.99,79.43 375.64,55.44 397.8,40.26 "></polygon> <polygon class="st0" points="413.66,19.83 388.74,79.43 403.55,79.36 408.43,63.05 419.78,62.61 425.84,79.43 437.22,79.43 "></polygon> </g> </svg> 