<?xml version="1.0" encoding="UTF-8"?> <!-- Generator: Adobe Illustrator 24.3.0, SVG Export Plug-In . SVG Version: 6.00 Build 0) --> <svg xmlns="http://www.w3.org/2000/svg" xmlns:xlink="http://www.w3.org/1999/xlink" id="Layer_1" x="0px" y="0px" viewBox="0 0 533.76 533.76" style="enable-background:new 0 0 533.76 533.76;" xml:space="preserve"> <style type="text/css"> .st0{fill:url(#SVGID_1_);} .st1{fill:#FFFFFF;} .st2{fill:#D3E6F2;} .st3{fill:#B6D0E5;} </style> <g> <linearGradient id="SVGID_1_" gradientUnits="userSpaceOnUse" x1="266.8813" y1="0" x2="266.8813" y2="531.8155"> <stop offset="0" style="stop-color:#42BDE9"></stop> <stop offset="1" style="stop-color:#23A8DD"></stop> </linearGradient> <circle class="st0" cx="266.88" cy="266.88" r="266.88"></circle> <g> <path class="st1" d="M396.74,153.52l-47.67,240.33c0,0-6.67,16.67-25,8.67l-110-84.33l-40-19.33l-67.33-22.67 c0,0-10.33-3.67-11.33-11.67c-1-8,11.67-12.33,11.67-12.33l267.67-105C374.74,147.19,396.74,137.52,396.74,153.52z"></path> <path class="st2" d="M205.62,391.16c0,0-3.21-0.3-7.21-12.97c-4-12.67-24.33-79.33-24.33-79.33l161.67-102.67c0,0,9.33-5.67,9,0 c0,0,1.67,1-3.33,5.67c-5,4.67-127,114.33-127,114.33"></path> <path class="st3" d="M256.25,350.52l-43.51,39.67c0,0-3.4,2.58-7.12,0.96l8.33-73.69"></path> </g> </g> </svg> 